
        <svg xmlns="http://www.w3.org/2000/svg" xmlns:xlink="http://www.w3.org/1999/xlink" version="1.1" width="3160.427807486631" height="882.3529411764705" viewBox="-32.0855614973262 0 3160.427807486631 882.3529411764705">
			
			<g transform="scale(8.02139037433155) translate(10, 10)">
				<defs id="SvgjsDefs1452"/><g id="SvgjsG1453" featureKey="rootContainer" transform="matrix(1,0,0,1,0,0)" fill="#fff"><rect y="0" height="1" width="1" opacity="0"/><rect y="85" width="370" height="5"/></g><g id="SvgjsG1454" featureKey="HKaMnE-0" transform="matrix(25.261273041742605,0,0,25.261273041742605,-29.109705849176155,-20.527800312448235)" fill="#fff"><g xmlns="http://www.w3.org/2000/svg"><path d="M2.631,1.446c-0.258,0-0.514,0.096-0.627,0.235V1.93c0.113-0.14,0.369-0.238,0.627-0.238   c0.256,0,0.503,0.099,0.617,0.238V1.682C3.134,1.542,2.887,1.446,2.631,1.446z"/><path d="M2.004,1.968v0.176C2.12,2.042,2.371,1.975,2.631,1.975c0.258,0,0.503,0.067,0.617,0.169V1.968   C3.134,1.864,2.889,1.795,2.631,1.795C2.371,1.795,2.12,1.864,2.004,1.968z"/><path d="M2.004,2.209v0.128c0.118-0.074,0.365-0.124,0.625-0.124s0.503,0.05,0.619,0.124V2.209   C3.132,2.135,2.889,2.085,2.629,2.085S2.122,2.135,2.004,2.209z"/><path d="M2.004,2.415v0.093c0.118-0.054,0.36-0.09,0.623-0.09c0.265,0,0.505,0.036,0.621,0.09V2.415   C3.132,2.361,2.889,2.323,2.627,2.323C2.364,2.323,2.122,2.361,2.004,2.415z"/><path d="M2.004,2.608v0.086c0.118-0.038,0.36-0.065,0.623-0.065c0.267,0,0.505,0.027,0.621,0.065V2.608   C3.132,2.57,2.894,2.546,2.627,2.546C2.364,2.546,2.122,2.57,2.004,2.608z"/><path d="M2.004,2.796v0.105C2.122,2.87,2.362,2.853,2.627,2.853c0.267,0,0.505,0.018,0.621,0.049V2.796   C3.132,2.77,2.894,2.749,2.627,2.749C2.362,2.749,2.122,2.77,2.004,2.796z"/><path d="M2.004,3.002v0.089C2.124,3.07,2.36,3.059,2.627,3.059S3.13,3.07,3.248,3.091V3.002   C3.13,2.98,2.894,2.967,2.627,2.967S2.124,2.98,2.004,3.002z"/><path d="M2.004,3.205v0.083c0.12-0.016,0.352-0.024,0.623-0.024c0.269,0,0.5,0.009,0.621,0.024V3.205   C3.127,3.189,2.896,3.181,2.627,3.181S2.124,3.189,2.004,3.205z"/><rect x="2.008" y="3.396" width="1.236" height="0.16"/><path d="M1.488,1.873c-0.203,0-0.404,0.074-0.494,0.188v0.193c0.09-0.11,0.291-0.188,0.494-0.188   s0.397,0.077,0.487,0.188V2.061C1.886,1.947,1.691,1.873,1.488,1.873z"/><path d="M0.994,2.283v0.141c0.09-0.08,0.291-0.134,0.494-0.134s0.397,0.054,0.487,0.134V2.283   C1.886,2.204,1.691,2.15,1.488,2.15S1.084,2.204,0.994,2.283z"/><path d="M0.994,2.475v0.104C1.084,2.52,1.28,2.48,1.486,2.48c0.207,0,0.399,0.039,0.489,0.099V2.475   c-0.09-0.057-0.282-0.098-0.489-0.098C1.28,2.377,1.084,2.418,0.994,2.475z"/><path d="M0.994,2.639v0.074c0.092-0.045,0.284-0.072,0.492-0.072c0.209,0,0.399,0.027,0.489,0.072V2.639   c-0.09-0.045-0.28-0.072-0.489-0.072C1.28,2.566,1.086,2.594,0.994,2.639z"/><path d="M0.994,2.793v0.068c0.094-0.032,0.284-0.053,0.492-0.053c0.209,0,0.397,0.021,0.489,0.053V2.793   c-0.092-0.029-0.28-0.054-0.489-0.054C1.278,2.739,1.088,2.764,0.994,2.793z"/><path d="M0.994,2.939v0.083c0.094-0.023,0.282-0.038,0.492-0.038c0.209,0,0.396,0.015,0.489,0.038V2.939   c-0.094-0.021-0.28-0.036-0.489-0.036C1.276,2.903,1.088,2.919,0.994,2.939z"/><path d="M0.994,3.104v0.07c0.094-0.017,0.279-0.029,0.492-0.029c0.212,0,0.396,0.013,0.489,0.029v-0.07   c-0.094-0.018-0.28-0.027-0.489-0.027C1.273,3.076,1.088,3.086,0.994,3.104z"/><path d="M0.994,3.264v0.065c0.094-0.012,0.277-0.021,0.492-0.021c0.212,0,0.396,0.009,0.489,0.021V3.264   C1.882,3.252,1.698,3.243,1.486,3.243C1.271,3.243,1.088,3.252,0.994,3.264z"/><rect x="0.998" y="3.412" width="0.973" height="0.144"/><path d="M3.644,2.278c-0.153,0-0.305,0.059-0.372,0.14v0.146c0.067-0.083,0.219-0.14,0.372-0.14   c0.152,0,0.297,0.057,0.362,0.14V2.418C3.941,2.337,3.796,2.278,3.644,2.278z"/><path d="M3.272,2.588v0.104c0.07-0.061,0.217-0.102,0.369-0.102c0.155,0,0.3,0.041,0.365,0.102V2.588   c-0.065-0.06-0.21-0.101-0.365-0.101C3.489,2.487,3.342,2.528,3.272,2.588z"/><path d="M3.272,2.73v0.078c0.07-0.045,0.217-0.075,0.369-0.075c0.155,0,0.298,0.03,0.365,0.075V2.73   c-0.067-0.045-0.21-0.074-0.365-0.074C3.489,2.656,3.342,2.686,3.272,2.73z"/><path d="M3.272,2.853v0.054c0.07-0.032,0.214-0.054,0.369-0.054s0.298,0.021,0.365,0.054V2.853   C3.939,2.82,3.796,2.8,3.641,2.8S3.342,2.82,3.272,2.853z"/><path d="M3.272,2.967v0.05c0.07-0.021,0.214-0.039,0.369-0.039s0.298,0.019,0.365,0.039v-0.05   c-0.067-0.022-0.21-0.039-0.365-0.039S3.342,2.944,3.272,2.967z"/><path d="M3.272,3.076V3.14c0.07-0.019,0.212-0.031,0.369-0.031S3.939,3.121,4.006,3.14V3.076   C3.939,3.062,3.798,3.05,3.641,3.05S3.342,3.062,3.272,3.076z"/><path d="M3.272,3.198v0.054c0.07-0.012,0.212-0.021,0.369-0.021S3.939,3.24,4.006,3.252V3.198   C3.939,3.187,3.798,3.178,3.641,3.178S3.342,3.187,3.272,3.198z"/><path d="M3.272,3.317v0.052c0.07-0.01,0.21-0.016,0.369-0.016c0.157,0,0.295,0.006,0.365,0.016V3.317   c-0.07-0.009-0.208-0.014-0.365-0.014C3.482,3.304,3.342,3.309,3.272,3.317z"/><rect x="3.277" y="3.431" width="0.728" height="0.125"/></g></g><g id="SvgjsG1455" featureKey="J3GnXt-0" transform="matrix(2.276550059372415,0,0,2.276550059372415,88.95357652271029,4.247863949892331)" fill="#fff"><path d="M3.0957 19.024390000000004 l0 -12.983 l1.8574 0 l0 12.251 l9.3433 0 l0 1.7073 l-10.113 0 q-0.5253283302 0 -0.8067542214 -0.3377110694 q-0.2814258912 -0.3189493433 -0.2814258912 -0.6378986867 z M31.03189924953096 6.041000000000004 l0 8.1051 q0 0.8442776735 0.3752345216 1.632270169 q0.3564727955 0.7504690432 0.9943714822 1.294559099 q0.5816135084 0.5440900563 1.407129456 0.8630393996 q0.8067542214 0.3189493433 1.632270169 0.3189493433 q0.8067542214 0 1.651031895 -0.3189493433 q0.8067542214 -0.3189493433 1.407129456 -0.8630393996 q0.6191369606 -0.5628517824 0.9756097561 -1.294559099 t0.35647 -1.6323 l0 -8.1051 l1.8762 0 l0 8.1051 q0 1.294559099 -0.5065666041 2.363977486 q-0.5628517824 1.106941839 -1.38836773 1.838649156 q-0.8630393996 0.7504690432 -2.00750469 1.181988743 q-1.181988743 0.4315196998 -2.363977486 0.4315196998 t-2.3077 -0.45028 q-1.106941839 -0.4127579737 -2.00750469 -1.219512195 q-0.8630393996 -0.7504690432 -1.407129456 -1.838649156 q-0.5440900563 -1.05065666 -0.5440900563 -2.307692308 l0 -8.1051 l1.8574 0 z M56.79177729831145 7.730000000000004 l0 -1.6886 l11.407 0 q0.5628517824 0 0.8255159475 0.3189493433 q0.243902439 0.3189493433 0.243902439 0.6566604128 q0 0.1313320826 -0.03752345216 0.3189493433 q-0.03752345216 0.1313320826 -0.1876172608 0.3001876173 l-9.6623 10.657 l9.8311 0 l0 1.7073 l-11.538 0 q-0.5628517824 0 -0.8067542214 -0.3377110694 q-0.2814258912 -0.3377110694 -0.2814258912 -0.6566604128 q0 -0.3377110694 0.243902439 -0.5816135084 l9.6623 -10.694 l-9.6998 0 z M95.15965666041276 13.864900000000002 l-9.1557 0 l0 4.4278 l9.7373 0 l0 1.7073 l-10.507 0 q-0.5253283302 0 -0.8067542214 -0.3377110694 q-0.2814258912 -0.3189493433 -0.2814258912 -0.6378986867 l0 -12.008 q0 -0.3189493433 0.2814258912 -0.6566604128 q0.2626641651 -0.3189493433 0.8067542214 -0.3189493433 l10.507 0 l0 1.6886 l-9.7373 0 l0 4.4278 l9.1557 0 l0 1.7073 z M116.6228866791745 14.390200000000004 l-4.5591 5.6098 l-2.2326 0 l5.6848 -6.9981 l-5.6848 -6.9606 l2.2326 0 l4.5591 5.591 l4.5403 -5.591 l2.2514 0 l-5.666 6.9606 l5.666 6.9981 l-2.2514 0 z"/></g><g id="SvgjsG1456" featureKey="sloganFeature-0" transform="matrix(0.6723442755058521,0,0,0.6723442755058521,94.77633346346317,56.718959858587745)" fill="#fff"><path d="M3.74 5.84 l0 14.16 l-1.92 0 l0 -14.16 l1.92 0 z M11.68 10.28 c1.3733 0 2.36 0.58666 2.96 1.76 c0.30666 -0.56 0.72666 -0.99334 1.26 -1.3 s1.1133 -0.46 1.74 -0.46 c2.3866 0 3.5866 1.3733 3.6 4.12 l0 5.6 l-1.8 0 l0 -5.38 c0 -0.93334 -0.16666 -1.61 -0.5 -2.03 s-0.84668 -0.63 -1.54 -0.63 c-0.81334 0 -1.42 0.24666 -1.82 0.74 s-0.6 1.1733 -0.6 2.04 l0 5.26 l-1.8 0 l0 -5.1 c0 -1.12 -0.16 -1.89 -0.48 -2.31 s-0.82666 -0.63 -1.52 -0.63 c-0.74666 0 -1.3433 0.28666 -1.79 0.86 s-0.67 1.3 -0.67 2.18 l0 5 l-1.8 0 l0 -9.48 l1.68 0 l0 1.48 l0.04 0 c0.2 -0.46666 0.59666 -0.87 1.19 -1.21 s1.21 -0.51 1.85 -0.51 z M27.76 10.28 c1.2 0 2.15 0.27328 2.85 0.81994 s1.07 1.3067 1.11 2.28 l0 5.08 c0 0.48 0.02666 0.99334 0.08 1.54 l-1.6 0 c-0.04 -0.42666 -0.06 -0.90666 -0.06 -1.44 l-0.04 0 c-0.41334 0.61334 -0.89 1.0467 -1.43 1.3 s-1.17 0.38 -1.89 0.38 c-0.97334 0 -1.7633 -0.26 -2.37 -0.78 s-0.91 -1.2067 -0.91 -2.06 c0 -1.08 0.45334 -1.8967 1.36 -2.45 s2.1866 -0.83 3.84 -0.83 l1.34 0 l0 -0.34 c0 -0.64 -0.21 -1.1433 -0.63 -1.51 s-0.97 -0.55 -1.65 -0.55 c-0.50666 0 -0.95 0.07666 -1.33 0.23 s-0.83 0.43668 -1.35 0.85002 l-1.08 -1.12 c1.0267 -0.90666 2.28 -1.3733 3.76 -1.4 z M25.3 17.259999999999998 c0 1.0267 0.68002 1.54 2.04 1.54 c0.81334 0 1.4633 -0.24334 1.95 -0.73 s0.73666 -1.19 0.75 -2.11 l0 -0.52 l-1.02 0 c-1.1733 0 -2.0866 0.15 -2.74 0.45 s-0.98 0.75666 -0.98 1.37 z M38.7 10.28 c0.68 0 1.3133 0.13998 1.9 0.41998 s1.0533 0.67334 1.4 1.18 l0.04 0 l0 -1.36 l1.8 0 l0 9.48 c-0.01334 1.4 -0.49334 2.5466 -1.44 3.44 s-2.1934 1.3467 -3.74 1.36 c-1.96 0 -3.5066 -0.56666 -4.64 -1.7 l1.22 -1.52 c0.94666 1.0267 2.08 1.54 3.4 1.54 c1.1333 0 1.9833 -0.29 2.55 -0.87 s0.85 -1.37 0.85 -2.37 l0 -1.44 l-0.06 0 c-0.32 0.56 -0.78334 0.98 -1.39 1.26 s-1.2367 0.42 -1.89 0.42 c-1.3867 0 -2.5334 -0.46334 -3.44 -1.39 s-1.3667 -2.07 -1.38 -3.43 c0.01334 -1.52 0.47 -2.7334 1.37 -3.64 s2.05 -1.3667 3.45 -1.38 z M35.800000000000004 15.26 c0 0.94666 0.27662 1.7067 0.82996 2.28 s1.3167 0.87334 2.29 0.9 c0.96 0 1.7167 -0.28666 2.27 -0.86 s0.83668 -1.3467 0.85002 -2.32 c0 -0.98666 -0.28334 -1.78 -0.85 -2.38 s-1.33 -0.90666 -2.29 -0.92 c-0.94666 0 -1.7 0.31334 -2.26 0.94 s-0.84 1.4133 -0.84 2.36 z M47.6 5.800000000000001 c0.36 0 0.67002 0.13002 0.93002 0.39002 s0.39 0.57 0.39 0.93 c0 0.37334 -0.13334 0.68668 -0.4 0.94002 s-0.57332 0.38 -0.91998 0.38 c-0.37334 0 -0.68668 -0.12666 -0.94002 -0.38 s-0.38 -0.56668 -0.38 -0.94002 s0.13334 -0.68668 0.4 -0.94002 s0.57332 -0.38 0.91998 -0.38 z M48.5 10.52 l0 9.48 l-1.8 0 l0 -9.48 l1.8 0 z M56.32 10.28 c1.0667 0 1.9033 0.32 2.51 0.96 s0.91666 1.5 0.93 2.58 l0 6.18 l-1.8 0 l0 -5.66 c0 -0.73334 -0.19 -1.3133 -0.57 -1.74 s-0.91 -0.64 -1.59 -0.64 c-0.84 0 -1.49 0.28 -1.95 0.84 s-0.69 1.3067 -0.69 2.24 l0 4.96 l-1.8 0 l0 -9.48 l1.8 0 l0 1.46 l0.04 0 c0.25334 -0.53334 0.66334 -0.95 1.23 -1.25 s1.1967 -0.45 1.89 -0.45 z M66.28 10.28 c1.2 0 2.15 0.27328 2.85 0.81994 s1.07 1.3067 1.11 2.28 l0 5.08 c0 0.48 0.02666 0.99334 0.08 1.54 l-1.6 0 c-0.04 -0.42666 -0.06 -0.90666 -0.06 -1.44 l-0.04 0 c-0.41334 0.61334 -0.89 1.0467 -1.43 1.3 s-1.17 0.38 -1.89 0.38 c-0.97334 0 -1.7633 -0.26 -2.37 -0.78 s-0.91 -1.2067 -0.91 -2.06 c0 -1.08 0.45334 -1.8967 1.36 -2.45 s2.1866 -0.83 3.84 -0.83 l1.34 0 l0 -0.34 c0 -0.64 -0.21 -1.1433 -0.63 -1.51 s-0.97 -0.55 -1.65 -0.55 c-0.50666 0 -0.95 0.07666 -1.33 0.23 s-0.83 0.43668 -1.35 0.85002 l-1.08 -1.12 c1.0267 -0.90666 2.28 -1.3733 3.76 -1.4 z M63.82000000000001 17.259999999999998 c0 1.0267 0.68002 1.54 2.04 1.54 c0.81334 0 1.4633 -0.24334 1.95 -0.73 s0.73666 -1.19 0.75 -2.11 l0 -0.52 l-1.02 0 c-1.1733 0 -2.0866 0.15 -2.74 0.45 s-0.98 0.75666 -0.98 1.37 z M75.36 7.859999999999999 l-0.000019531 2.66 l2.58 0 l0 1.56 l-2.58 0 l0 4.56 c0 0.61334 0.08666 1.0867 0.26 1.42 s0.54 0.5 1.1 0.5 c0.53334 0 0.96 -0.09334 1.28 -0.28 l0 1.64 c-0.34666 0.18666 -0.89332 0.29332 -1.64 0.31998 c-0.72 0 -1.2767 -0.11 -1.67 -0.33 s-0.68 -0.52666 -0.86 -0.92 s-0.27 -1.01 -0.27 -1.85 l0 -5.06 l-2.08 0 l0 -1.56 l2.08 0 l0 -2.66 l1.8 0 z M81.32000000000001 5.800000000000001 c0.36 0 0.67002 0.13002 0.93002 0.39002 s0.39 0.57 0.39 0.93 c0 0.37334 -0.13334 0.68668 -0.4 0.94002 s-0.57332 0.38 -0.91998 0.38 c-0.37334 0 -0.68668 -0.12666 -0.94002 -0.38 s-0.38 -0.56668 -0.38 -0.94002 s0.13334 -0.68668 0.4 -0.94002 s0.57332 -0.38 0.91998 -0.38 z M82.22 10.52 l0 9.48 l-1.8 0 l0 -9.48 l1.8 0 z M89.66 10.28 c1.4 0 2.5866 0.48338 3.56 1.45 s1.4667 2.1434 1.48 3.53 c0 1.4 -0.48666 2.5734 -1.46 3.52 s-2.1666 1.4333 -3.58 1.46 c-1.3867 0 -2.5666 -0.48 -3.54 -1.44 s-1.4733 -2.14 -1.5 -3.54 c0 -1.3733 0.48334 -2.54 1.45 -3.5 s2.1634 -1.4533 3.59 -1.48 z M86.53999999999999 15.26 c0 0.97334 0.28664 1.7633 0.85998 2.37 s1.3267 0.91666 2.26 0.93 c0.94666 0 1.7 -0.30334 2.26 -0.91 s0.84666 -1.4033 0.86 -2.39 c0 -0.97334 -0.28 -1.7633 -0.84 -2.37 s-1.3267 -0.91666 -2.3 -0.93 c-0.94666 0 -1.7 0.31334 -2.26 0.94 s-0.84 1.4133 -0.84 2.36 z M101.91999999999999 10.28 c1.0667 0 1.9033 0.32 2.51 0.96 s0.91666 1.5 0.93 2.58 l0 6.18 l-1.8 0 l0 -5.66 c0 -0.73334 -0.19 -1.3133 -0.57 -1.74 s-0.91 -0.64 -1.59 -0.64 c-0.84 0 -1.49 0.28 -1.95 0.84 s-0.69 1.3067 -0.69 2.24 l0 4.96 l-1.8 0 l0 -9.48 l1.8 0 l0 1.46 l0.04 0 c0.25334 -0.53334 0.66334 -0.95 1.23 -1.25 s1.1967 -0.45 1.89 -0.45 z M121.58 5.84 l0 14.16 l-1.92 0 l0 -14.16 l1.92 0 z M129.72 10.28 c1.0667 0 1.9033 0.32 2.51 0.96 s0.91666 1.5 0.93 2.58 l0 6.18 l-1.8 0 l0 -5.66 c0 -0.73334 -0.19 -1.3133 -0.57 -1.74 s-0.91 -0.64 -1.59 -0.64 c-0.84 0 -1.49 0.28 -1.95 0.84 s-0.69 1.3067 -0.69 2.24 l0 4.96 l-1.8 0 l0 -9.48 l1.8 0 l0 1.46 l0.04 0 c0.25334 -0.53334 0.66334 -0.95 1.23 -1.25 s1.1967 -0.45 1.89 -0.45 z M140.84 10.28 c1.0667 0 1.9033 0.32 2.51 0.96 s0.91666 1.5 0.93 2.58 l0 6.18 l-1.8 0 l0 -5.66 c0 -0.73334 -0.19 -1.3133 -0.57 -1.74 s-0.91 -0.64 -1.59 -0.64 c-0.84 0 -1.49 0.28 -1.95 0.84 s-0.69 1.3067 -0.69 2.24 l0 4.96 l-1.8 0 l0 -9.48 l1.8 0 l0 1.46 l0.04 0 c0.25334 -0.53334 0.66334 -0.95 1.23 -1.25 s1.1967 -0.45 1.89 -0.45 z M151.58 10.28 c1.4 0 2.5866 0.48338 3.56 1.45 s1.4667 2.1434 1.48 3.53 c0 1.4 -0.48666 2.5734 -1.46 3.52 s-2.1666 1.4333 -3.58 1.46 c-1.3867 0 -2.5666 -0.48 -3.54 -1.44 s-1.4733 -2.14 -1.5 -3.54 c0 -1.3733 0.48334 -2.54 1.45 -3.5 s2.1634 -1.4533 3.59 -1.48 z M148.46 15.26 c0 0.97334 0.28664 1.7633 0.85998 2.37 s1.3267 0.91666 2.26 0.93 c0.94666 0 1.7 -0.30334 2.26 -0.91 s0.84666 -1.4033 0.86 -2.39 c0 -0.97334 -0.28 -1.7633 -0.84 -2.37 s-1.3267 -0.91666 -2.3 -0.93 c-0.94666 0 -1.7 0.31334 -2.26 0.94 s-0.84 1.4133 -0.84 2.36 z M159.82000000000002 10.52 l2.84 7.26 l2.72 -7.26 l1.92 0 l-3.72 9.48 l-1.98 0 l-3.86 -9.48 l2.08 0 z M172.68 10.28 c1.2 0 2.15 0.27328 2.85 0.81994 s1.07 1.3067 1.11 2.28 l0 5.08 c0 0.48 0.02666 0.99334 0.08 1.54 l-1.6 0 c-0.04 -0.42666 -0.06 -0.90666 -0.06 -1.44 l-0.04 0 c-0.41334 0.61334 -0.89 1.0467 -1.43 1.3 s-1.17 0.38 -1.89 0.38 c-0.97334 0 -1.7633 -0.26 -2.37 -0.78 s-0.91 -1.2067 -0.91 -2.06 c0 -1.08 0.45334 -1.8967 1.36 -2.45 s2.1866 -0.83 3.84 -0.83 l1.34 0 l0 -0.34 c0 -0.64 -0.21 -1.1433 -0.63 -1.51 s-0.97 -0.55 -1.65 -0.55 c-0.50666 0 -0.95 0.07666 -1.33 0.23 s-0.83 0.43668 -1.35 0.85002 l-1.08 -1.12 c1.0267 -0.90666 2.28 -1.3733 3.76 -1.4 z M170.22 17.259999999999998 c0 1.0267 0.68002 1.54 2.04 1.54 c0.81334 0 1.4633 -0.24334 1.95 -0.73 s0.73666 -1.19 0.75 -2.11 l0 -0.52 l-1.02 0 c-1.1733 0 -2.0866 0.15 -2.74 0.45 s-0.98 0.75666 -0.98 1.37 z M181.76000000000002 7.859999999999999 l-0.000019531 2.66 l2.58 0 l0 1.56 l-2.58 0 l0 4.56 c0 0.61334 0.08666 1.0867 0.26 1.42 s0.54 0.5 1.1 0.5 c0.53334 0 0.96 -0.09334 1.28 -0.28 l0 1.64 c-0.34666 0.18666 -0.89332 0.29332 -1.64 0.31998 c-0.72 0 -1.2767 -0.11 -1.67 -0.33 s-0.68 -0.52666 -0.86 -0.92 s-0.27 -1.01 -0.27 -1.85 l0 -5.06 l-2.08 0 l0 -1.56 l2.08 0 l0 -2.66 l1.8 0 z M187.72000000000003 5.800000000000001 c0.36 0 0.67002 0.13002 0.93002 0.39002 s0.39 0.57 0.39 0.93 c0 0.37334 -0.13334 0.68668 -0.4 0.94002 s-0.57332 0.38 -0.91998 0.38 c-0.37334 0 -0.68668 -0.12666 -0.94002 -0.38 s-0.38 -0.56668 -0.38 -0.94002 s0.13334 -0.68668 0.4 -0.94002 s0.57332 -0.38 0.91998 -0.38 z M188.62000000000003 10.52 l0 9.48 l-1.8 0 l0 -9.48 l1.8 0 z M196.06000000000003 10.28 c1.4 0 2.5866 0.48338 3.56 1.45 s1.4667 2.1434 1.48 3.53 c0 1.4 -0.48666 2.5734 -1.46 3.52 s-2.1666 1.4333 -3.58 1.46 c-1.3867 0 -2.5666 -0.48 -3.54 -1.44 s-1.4733 -2.14 -1.5 -3.54 c0 -1.3733 0.48334 -2.54 1.45 -3.5 s2.1634 -1.4533 3.59 -1.48 z M192.94000000000003 15.26 c0 0.97334 0.28664 1.7633 0.85998 2.37 s1.3267 0.91666 2.26 0.93 c0.94666 0 1.7 -0.30334 2.26 -0.91 s0.84666 -1.4033 0.86 -2.39 c0 -0.97334 -0.28 -1.7633 -0.84 -2.37 s-1.3267 -0.91666 -2.3 -0.93 c-0.94666 0 -1.7 0.31334 -2.26 0.94 s-0.84 1.4133 -0.84 2.36 z M208.32000000000002 10.28 c1.0667 0 1.9033 0.32 2.51 0.96 s0.91666 1.5 0.93 2.58 l0 6.18 l-1.8 0 l0 -5.66 c0 -0.73334 -0.19 -1.3133 -0.57 -1.74 s-0.91 -0.64 -1.59 -0.64 c-0.84 0 -1.49 0.28 -1.95 0.84 s-0.69 1.3067 -0.69 2.24 l0 4.96 l-1.8 0 l0 -9.48 l1.8 0 l0 1.46 l0.04 0 c0.25334 -0.53334 0.66334 -0.95 1.23 -1.25 s1.1967 -0.45 1.89 -0.45 z M227.98000000000005 5.84 l0 14.16 l-1.92 0 l0 -14.16 l1.92 0 z M233.10000000000005 4.880000000000001 l0 15.12 l-1.8 0 l0 -15.12 l1.8 0 z M237.92000000000007 4.880000000000001 l0 15.12 l-1.8 0 l0 -15.12 l1.8 0 z M242.58000000000007 10.52 l0 5.68 c0 0.74666 0.19666 1.3267 0.59 1.74 s0.91668 0.62 1.57 0.62 c0.84 0 1.49 -0.27666 1.95 -0.83 s0.69 -1.3033 0.69 -2.25 l0 -4.96 l1.8 0 l0 9.48 l-1.8 0 l0 -1.46 l-0.04 0 c-0.25334 0.53334 -0.66668 0.95 -1.24 1.25 s-1.2 0.45 -1.88 0.45 c-1.0533 0 -1.89 -0.32666 -2.51 -0.98 s-0.93 -1.5067 -0.93 -2.56 l0 -6.18 l1.8 0 z M256.6600000000001 10.28 c1.3733 0 2.36 0.58666 2.96 1.76 c0.30666 -0.56 0.72666 -0.99334 1.26 -1.3 s1.1133 -0.46 1.74 -0.46 c2.3866 0 3.5866 1.3733 3.6 4.12 l0 5.6 l-1.8 0 l0 -5.38 c0 -0.93334 -0.16666 -1.61 -0.5 -2.03 s-0.84668 -0.63 -1.54 -0.63 c-0.81334 0 -1.42 0.24666 -1.82 0.74 s-0.6 1.1733 -0.6 2.04 l0 5.26 l-1.8 0 l0 -5.1 c0 -1.12 -0.16 -1.89 -0.48 -2.31 s-0.82666 -0.63 -1.52 -0.63 c-0.74666 0 -1.3433 0.28666 -1.79 0.86 s-0.67 1.3 -0.67 2.18 l0 5 l-1.8 0 l0 -9.48 l1.68 0 l0 1.48 l0.04 0 c0.2 -0.46666 0.59666 -0.87 1.19 -1.21 s1.21 -0.51 1.85 -0.51 z M269.9800000000001 5.800000000000001 c0.36 0 0.67002 0.13002 0.93002 0.39002 s0.39 0.57 0.39 0.93 c0 0.37334 -0.13334 0.68668 -0.4 0.94002 s-0.57332 0.38 -0.91998 0.38 c-0.37334 0 -0.68668 -0.12666 -0.94002 -0.38 s-0.38 -0.56668 -0.38 -0.94002 s0.13334 -0.68668 0.4 -0.94002 s0.57332 -0.38 0.91998 -0.38 z M270.8800000000001 10.52 l0 9.48 l-1.8 0 l0 -9.48 l1.8 0 z M278.7000000000001 10.28 c1.0667 0 1.9033 0.32 2.51 0.96 s0.91666 1.5 0.93 2.58 l0 6.18 l-1.8 0 l0 -5.66 c0 -0.73334 -0.19 -1.3133 -0.57 -1.74 s-0.91 -0.64 -1.59 -0.64 c-0.84 0 -1.49 0.28 -1.95 0.84 s-0.69 1.3067 -0.69 2.24 l0 4.96 l-1.8 0 l0 -9.48 l1.8 0 l0 1.46 l0.04 0 c0.25334 -0.53334 0.66334 -0.95 1.23 -1.25 s1.1967 -0.45 1.89 -0.45 z M288.66000000000014 10.28 c1.2 0 2.15 0.27328 2.85 0.81994 s1.07 1.3067 1.11 2.28 l0 5.08 c0 0.48 0.02666 0.99334 0.08 1.54 l-1.6 0 c-0.04 -0.42666 -0.06 -0.90666 -0.06 -1.44 l-0.04 0 c-0.41334 0.61334 -0.89 1.0467 -1.43 1.3 s-1.17 0.38 -1.89 0.38 c-0.97334 0 -1.7633 -0.26 -2.37 -0.78 s-0.91 -1.2067 -0.91 -2.06 c0 -1.08 0.45334 -1.8967 1.36 -2.45 s2.1866 -0.83 3.84 -0.83 l1.34 0 l0 -0.34 c0 -0.64 -0.21 -1.1433 -0.63 -1.51 s-0.97 -0.55 -1.65 -0.55 c-0.50666 0 -0.95 0.07666 -1.33 0.23 s-0.83 0.43668 -1.35 0.85002 l-1.08 -1.12 c1.0267 -0.90666 2.28 -1.3733 3.76 -1.4 z M286.2000000000001 17.259999999999998 c0 1.0267 0.68002 1.54 2.04 1.54 c0.81334 0 1.4633 -0.24334 1.95 -0.73 s0.73666 -1.19 0.75 -2.11 l0 -0.52 l-1.02 0 c-1.1733 0 -2.0866 0.15 -2.74 0.45 s-0.98 0.75666 -0.98 1.37 z M297.7400000000001 7.859999999999999 l-0.000019531 2.66 l2.58 0 l0 1.56 l-2.58 0 l0 4.56 c0 0.61334 0.08666 1.0867 0.26 1.42 s0.54 0.5 1.1 0.5 c0.53334 0 0.96 -0.09334 1.28 -0.28 l0 1.64 c-0.34666 0.18666 -0.89332 0.29332 -1.64 0.31998 c-0.72 0 -1.2767 -0.11 -1.67 -0.33 s-0.68 -0.52666 -0.86 -0.92 s-0.27 -1.01 -0.27 -1.85 l0 -5.06 l-2.08 0 l0 -1.56 l2.08 0 l0 -2.66 l1.8 0 z M303.70000000000005 5.800000000000001 c0.36 0 0.67002 0.13002 0.93002 0.39002 s0.39 0.57 0.39 0.93 c0 0.37334 -0.13334 0.68668 -0.4 0.94002 s-0.57332 0.38 -0.91998 0.38 c-0.37334 0 -0.68668 -0.12666 -0.94002 -0.38 s-0.38 -0.56668 -0.38 -0.94002 s0.13334 -0.68668 0.4 -0.94002 s0.57332 -0.38 0.91998 -0.38 z M304.6000000000001 10.52 l0 9.48 l-1.8 0 l0 -9.48 l1.8 0 z M312.0400000000001 10.28 c1.4 0 2.5866 0.48338 3.56 1.45 s1.4667 2.1434 1.48 3.53 c0 1.4 -0.48666 2.5734 -1.46 3.52 s-2.1666 1.4333 -3.58 1.46 c-1.3867 0 -2.5666 -0.48 -3.54 -1.44 s-1.4733 -2.14 -1.5 -3.54 c0 -1.3733 0.48334 -2.54 1.45 -3.5 s2.1634 -1.4533 3.59 -1.48 z M308.9200000000001 15.26 c0 0.97334 0.28664 1.7633 0.85998 2.37 s1.3267 0.91666 2.26 0.93 c0.94666 0 1.7 -0.30334 2.26 -0.91 s0.84666 -1.4033 0.86 -2.39 c0 -0.97334 -0.28 -1.7633 -0.84 -2.37 s-1.3267 -0.91666 -2.3 -0.93 c-0.94666 0 -1.7 0.31334 -2.26 0.94 s-0.84 1.4133 -0.84 2.36 z M324.30000000000007 10.28 c1.0667 0 1.9033 0.32 2.51 0.96 s0.91666 1.5 0.93 2.58 l0 6.18 l-1.8 0 l0 -5.66 c0 -0.73334 -0.19 -1.3133 -0.57 -1.74 s-0.91 -0.64 -1.59 -0.64 c-0.84 0 -1.49 0.28 -1.95 0.84 s-0.69 1.3067 -0.69 2.24 l0 4.96 l-1.8 0 l0 -9.48 l1.8 0 l0 1.46 l0.04 0 c0.25334 -0.53334 0.66334 -0.95 1.23 -1.25 s1.1967 -0.45 1.89 -0.45 z"/></g>
			</g>
		</svg>
	